<svg width="110" height="94" viewBox="0 0 110 94" fill="none" xmlns="http://www.w3.org/2000/svg">
<path fill-rule="evenodd" clip-rule="evenodd" d="M101.49 73.48C101.49 74.58 100.59 75.48 99.4899 75.48C98.3899 75.48 97.4899 74.58 97.4899 73.48C97.4899 72.38 98.3899 71.48 99.4899 71.48C100.59 71.48 101.49 72.38 101.49 73.48ZM96.8899 84.98L95.8899 89.38L88.8899 87.98L89.2899 85.98L94.1899 86.98L95.7899 78.88L93.9899 79.58V82.98H91.9899V78.28L97.1899 76.08C97.3399 76.08 97.4649 76.055 97.5899 76.03C97.7149 76.005 97.8399 75.98 97.9899 75.98C98.6899 75.98 99.2899 76.38 99.6899 76.98L100.69 78.58C101.49 79.98 103.09 80.98 104.99 80.98V82.98C102.79 82.98 100.79 81.98 99.4899 80.48L98.8899 83.48L100.99 85.48V92.98H98.9899V86.98L96.8899 84.98Z" fill="black"/>
<g opacity="0.617606">
<path fill-rule="evenodd" clip-rule="evenodd" d="M37.0999 16H41.5544V22.6005H37.0999V16ZM27.6562 25.5986L23.6471 21.5936L20.5067 24.7484L24.4935 28.7534L27.6562 25.5986ZM21.509 38.2626H14.8271V42.7374H21.509V38.2626ZM58.1476 24.7484L55.0071 21.5936L51.0203 25.5986L54.1608 28.7534L58.1476 24.7484ZM54.9849 59.4288L50.9981 55.4014L54.1162 52.269L58.1253 56.274L54.9849 59.4288ZM63.8271 38.2626H57.1453V42.7374H63.8271V38.2626ZM25.9635 40.5C25.9635 33.0941 31.9549 27.0753 39.3271 27.0753C46.6994 27.0753 52.6908 33.0941 52.6908 40.5C52.6908 47.9059 46.6994 53.9247 39.3271 53.9247C31.9549 53.9247 25.9635 47.9059 25.9635 40.5ZM41.5544 65V58.3995H37.0999V65H41.5544ZM23.6471 59.4064L20.5067 56.2516L24.4935 52.2242L27.634 55.379L23.6471 59.4064Z" fill="#EDF219"/>
</g>
<path opacity="0.267904" d="M1 80.5L76.6543 81" stroke="#979797"/>
<path opacity="0.267904" d="M1 0.5L76.6543 1" stroke="#979797"/>
</svg>
