<svg width="140" height="101" viewBox="0 0 140 101" fill="none" xmlns="http://www.w3.org/2000/svg">
<path d="M41.3217 8.46V7.83H43.0217V15H42.3117V8.46H41.3217ZM48.9466 8.38L46.1566 15H45.4466L48.2666 8.44H44.2666V7.84H48.9466V8.38ZM52.7128 12.27C52.7128 11.7033 52.8261 11.21 53.0528 10.79C53.2795 10.3633 53.5928 10.0367 53.9928 9.81C54.3928 9.57667 54.8495 9.46 55.3628 9.46C56.0361 9.46 56.5895 9.62667 57.0228 9.96C57.4628 10.2933 57.7461 10.7467 57.8728 11.32H57.1228C57.0295 10.9267 56.8261 10.62 56.5128 10.4C56.2061 10.1733 55.8228 10.06 55.3628 10.06C54.9961 10.06 54.6661 10.1433 54.3728 10.31C54.0795 10.4767 53.8461 10.7267 53.6728 11.06C53.5061 11.3867 53.4228 11.79 53.4228 12.27C53.4228 12.75 53.5061 13.1567 53.6728 13.49C53.8461 13.8233 54.0795 14.0733 54.3728 14.24C54.6661 14.4067 54.9961 14.49 55.3628 14.49C55.8228 14.49 56.2061 14.38 56.5128 14.16C56.8261 13.9333 57.0295 13.62 57.1228 13.22H57.8728C57.7461 13.78 57.4628 14.23 57.0228 14.57C56.5828 14.91 56.0295 15.08 55.3628 15.08C54.8495 15.08 54.3928 14.9667 53.9928 14.74C53.5928 14.5067 53.2795 14.18 53.0528 13.76C52.8261 13.3333 52.7128 12.8367 52.7128 12.27ZM64.1806 11.99C64.1806 12.23 64.174 12.4133 64.1606 12.54H59.6306C59.6506 12.9533 59.7506 13.3067 59.9306 13.6C60.1106 13.8933 60.3473 14.1167 60.6406 14.27C60.934 14.4167 61.254 14.49 61.6006 14.49C62.054 14.49 62.434 14.38 62.7406 14.16C63.054 13.94 63.2606 13.6433 63.3606 13.27H64.1006C63.9673 13.8033 63.6806 14.24 63.2406 14.58C62.8073 14.9133 62.2606 15.08 61.6006 15.08C61.0873 15.08 60.6273 14.9667 60.2206 14.74C59.814 14.5067 59.494 14.18 59.2606 13.76C59.034 13.3333 58.9206 12.8367 58.9206 12.27C58.9206 11.7033 59.034 11.2067 59.2606 10.78C59.4873 10.3533 59.804 10.0267 60.2106 9.8C60.6173 9.57333 61.0806 9.46 61.6006 9.46C62.1206 9.46 62.574 9.57333 62.9606 9.8C63.354 10.0267 63.654 10.3333 63.8606 10.72C64.074 11.1 64.1806 11.5233 64.1806 11.99ZM63.4706 11.97C63.4773 11.5633 63.394 11.2167 63.2206 10.93C63.054 10.6433 62.824 10.4267 62.5306 10.28C62.2373 10.1333 61.9173 10.06 61.5706 10.06C61.0506 10.06 60.6073 10.2267 60.2406 10.56C59.874 10.8933 59.6706 11.3633 59.6306 11.97H63.4706ZM66.2363 7.6V15H65.5363V7.6H66.2363ZM69.7765 15.08C69.1498 15.08 68.6365 14.9367 68.2365 14.65C67.8432 14.3567 67.6232 13.96 67.5765 13.46H68.2965C68.3298 13.7667 68.4732 14.0167 68.7265 14.21C68.9865 14.3967 69.3332 14.49 69.7665 14.49C70.1465 14.49 70.4432 14.4 70.6565 14.22C70.8765 14.04 70.9865 13.8167 70.9865 13.55C70.9865 13.3633 70.9265 13.21 70.8065 13.09C70.6865 12.97 70.5332 12.8767 70.3465 12.81C70.1665 12.7367 69.9198 12.66 69.6065 12.58C69.1998 12.4733 68.8698 12.3667 68.6165 12.26C68.3632 12.1533 68.1465 11.9967 67.9665 11.79C67.7932 11.5767 67.7065 11.2933 67.7065 10.94C67.7065 10.6733 67.7865 10.4267 67.9465 10.2C68.1065 9.97333 68.3332 9.79333 68.6265 9.66C68.9198 9.52667 69.2532 9.46 69.6265 9.46C70.2132 9.46 70.6865 9.61 71.0465 9.91C71.4065 10.2033 71.5998 10.61 71.6265 11.13H70.9265C70.9065 10.81 70.7798 10.5533 70.5465 10.36C70.3198 10.16 70.0065 10.06 69.6065 10.06C69.2532 10.06 68.9665 10.1433 68.7465 10.31C68.5265 10.4767 68.4165 10.6833 68.4165 10.93C68.4165 11.1433 68.4798 11.32 68.6065 11.46C68.7398 11.5933 68.9032 11.7 69.0965 11.78C69.2898 11.8533 69.5498 11.9367 69.8765 12.03C70.2698 12.1367 70.5832 12.24 70.8165 12.34C71.0498 12.44 71.2498 12.5867 71.4165 12.78C71.5832 12.9733 71.6698 13.23 71.6765 13.55C71.6765 13.8433 71.5965 14.1067 71.4365 14.34C71.2765 14.5667 71.0532 14.7467 70.7665 14.88C70.4798 15.0133 70.1498 15.08 69.7765 15.08ZM73.4191 8.51C73.2791 8.51 73.1591 8.46 73.0591 8.36C72.9591 8.26 72.9091 8.13667 72.9091 7.99C72.9091 7.84333 72.9591 7.72333 73.0591 7.63C73.1591 7.53 73.2791 7.48 73.4191 7.48C73.5591 7.48 73.6791 7.53 73.7791 7.63C73.8791 7.72333 73.9291 7.84333 73.9291 7.99C73.9291 8.13667 73.8791 8.26 73.7791 8.36C73.6791 8.46 73.5591 8.51 73.4191 8.51ZM73.7691 9.54V15H73.0691V9.54H73.7691ZM80.1593 9.54V15H79.4593V14.04C79.2993 14.38 79.0526 14.64 78.7193 14.82C78.386 15 78.0126 15.09 77.5993 15.09C76.946 15.09 76.4126 14.89 75.9993 14.49C75.586 14.0833 75.3793 13.4967 75.3793 12.73V9.54H76.0693V12.65C76.0693 13.2433 76.216 13.6967 76.5093 14.01C76.8093 14.3233 77.216 14.48 77.7293 14.48C78.256 14.48 78.676 14.3133 78.9893 13.98C79.3026 13.6467 79.4593 13.1567 79.4593 12.51V9.54H80.1593ZM83.7124 15.08C83.0858 15.08 82.5724 14.9367 82.1724 14.65C81.7791 14.3567 81.5591 13.96 81.5124 13.46H82.2324C82.2658 13.7667 82.4091 14.0167 82.6624 14.21C82.9224 14.3967 83.2691 14.49 83.7024 14.49C84.0824 14.49 84.3791 14.4 84.5924 14.22C84.8124 14.04 84.9224 13.8167 84.9224 13.55C84.9224 13.3633 84.8624 13.21 84.7424 13.09C84.6224 12.97 84.4691 12.8767 84.2824 12.81C84.1024 12.7367 83.8558 12.66 83.5424 12.58C83.1358 12.4733 82.8058 12.3667 82.5524 12.26C82.2991 12.1533 82.0824 11.9967 81.9024 11.79C81.7291 11.5767 81.6424 11.2933 81.6424 10.94C81.6424 10.6733 81.7224 10.4267 81.8824 10.2C82.0424 9.97333 82.2691 9.79333 82.5624 9.66C82.8558 9.52667 83.1891 9.46 83.5624 9.46C84.1491 9.46 84.6224 9.61 84.9824 9.91C85.3424 10.2033 85.5358 10.61 85.5624 11.13H84.8624C84.8424 10.81 84.7158 10.5533 84.4824 10.36C84.2558 10.16 83.9424 10.06 83.5424 10.06C83.1891 10.06 82.9024 10.1433 82.6824 10.31C82.4624 10.4767 82.3524 10.6833 82.3524 10.93C82.3524 11.1433 82.4158 11.32 82.5424 11.46C82.6758 11.5933 82.8391 11.7 83.0324 11.78C83.2258 11.8533 83.4858 11.9367 83.8124 12.03C84.2058 12.1367 84.5191 12.24 84.7524 12.34C84.9858 12.44 85.1858 12.5867 85.3524 12.78C85.5191 12.9733 85.6058 13.23 85.6124 13.55C85.6124 13.8433 85.5324 14.1067 85.3724 14.34C85.2124 14.5667 84.9891 14.7467 84.7024 14.88C84.4158 15.0133 84.0858 15.08 83.7124 15.08ZM90.6842 16H89.9842V7.1H90.6842V16ZM99.3849 11.28C98.9716 11.1467 98.6549 10.9367 98.4349 10.65C98.2216 10.3633 98.1149 10.0167 98.1149 9.61C98.1149 9.25 98.2049 8.93 98.3849 8.65C98.5716 8.36333 98.8416 8.14 99.1949 7.98C99.5483 7.81333 99.9716 7.73 100.465 7.73C100.958 7.73 101.382 7.81333 101.735 7.98C102.088 8.14 102.355 8.36333 102.535 8.65C102.722 8.93 102.815 9.25 102.815 9.61C102.815 10.01 102.705 10.3567 102.485 10.65C102.272 10.9433 101.958 11.1533 101.545 11.28C101.998 11.3933 102.355 11.61 102.615 11.93C102.875 12.25 103.005 12.64 103.005 13.1C103.005 13.5267 102.898 13.9 102.685 14.22C102.478 14.5333 102.182 14.7767 101.795 14.95C101.415 15.1233 100.972 15.21 100.465 15.21C99.9583 15.21 99.5116 15.1233 99.1249 14.95C98.7449 14.7767 98.4483 14.5333 98.2349 14.22C98.0283 13.9 97.9249 13.5267 97.9249 13.1C97.9249 12.64 98.0549 12.25 98.3149 11.93C98.5749 11.61 98.9316 11.3933 99.3849 11.28ZM102.135 9.69C102.135 9.25 101.985 8.91 101.685 8.67C101.385 8.43 100.978 8.31 100.465 8.31C99.9516 8.31 99.5449 8.43 99.2449 8.67C98.9449 8.90333 98.7949 9.24333 98.7949 9.69C98.7949 10.1033 98.9483 10.4333 99.2549 10.68C99.5616 10.9267 99.9649 11.05 100.465 11.05C100.965 11.05 101.368 10.9267 101.675 10.68C101.982 10.4333 102.135 10.1033 102.135 9.69ZM100.465 11.59C99.9183 11.59 99.4716 11.7133 99.1249 11.96C98.7783 12.2067 98.6049 12.58 98.6049 13.08C98.6049 13.56 98.7716 13.9367 99.1049 14.21C99.4383 14.4833 99.8916 14.62 100.465 14.62C101.032 14.62 101.482 14.4833 101.815 14.21C102.148 13.93 102.315 13.5533 102.315 13.08C102.315 12.5867 102.142 12.2167 101.795 11.97C101.455 11.7167 101.012 11.59 100.465 11.59ZM107.06 9.44C107.473 9.44 107.843 9.52667 108.17 9.7C108.503 9.87333 108.763 10.14 108.95 10.5C109.143 10.8533 109.24 11.2867 109.24 11.8V15H108.55V11.88C108.55 11.2867 108.4 10.8333 108.1 10.52C107.807 10.2067 107.403 10.05 106.89 10.05C106.363 10.05 105.943 10.2167 105.63 10.55C105.317 10.8833 105.16 11.3733 105.16 12.02V15H104.46V7.6H105.16V10.47C105.333 10.1433 105.587 9.89 105.92 9.71C106.26 9.53 106.64 9.44 107.06 9.44Z" fill="black" fill-opacity="0.85"/>
<path d="M41.3217 47.46V46.83H43.0217V54H42.3117V47.46H41.3217ZM48.9466 47.38L46.1566 54H45.4466L48.2666 47.44H44.2666V46.84H48.9466V47.38ZM52.7128 51.27C52.7128 50.7033 52.8261 50.21 53.0528 49.79C53.2795 49.3633 53.5928 49.0367 53.9928 48.81C54.3928 48.5767 54.8495 48.46 55.3628 48.46C56.0361 48.46 56.5895 48.6267 57.0228 48.96C57.4628 49.2933 57.7461 49.7467 57.8728 50.32H57.1228C57.0295 49.9267 56.8261 49.62 56.5128 49.4C56.2061 49.1733 55.8228 49.06 55.3628 49.06C54.9961 49.06 54.6661 49.1433 54.3728 49.31C54.0795 49.4767 53.8461 49.7267 53.6728 50.06C53.5061 50.3867 53.4228 50.79 53.4228 51.27C53.4228 51.75 53.5061 52.1567 53.6728 52.49C53.8461 52.8233 54.0795 53.0733 54.3728 53.24C54.6661 53.4067 54.9961 53.49 55.3628 53.49C55.8228 53.49 56.2061 53.38 56.5128 53.16C56.8261 52.9333 57.0295 52.62 57.1228 52.22H57.8728C57.7461 52.78 57.4628 53.23 57.0228 53.57C56.5828 53.91 56.0295 54.08 55.3628 54.08C54.8495 54.08 54.3928 53.9667 53.9928 53.74C53.5928 53.5067 53.2795 53.18 53.0528 52.76C52.8261 52.3333 52.7128 51.8367 52.7128 51.27ZM64.1806 50.99C64.1806 51.23 64.174 51.4133 64.1606 51.54H59.6306C59.6506 51.9533 59.7506 52.3067 59.9306 52.6C60.1106 52.8933 60.3473 53.1167 60.6406 53.27C60.934 53.4167 61.254 53.49 61.6006 53.49C62.054 53.49 62.434 53.38 62.7406 53.16C63.054 52.94 63.2606 52.6433 63.3606 52.27H64.1006C63.9673 52.8033 63.6806 53.24 63.2406 53.58C62.8073 53.9133 62.2606 54.08 61.6006 54.08C61.0873 54.08 60.6273 53.9667 60.2206 53.74C59.814 53.5067 59.494 53.18 59.2606 52.76C59.034 52.3333 58.9206 51.8367 58.9206 51.27C58.9206 50.7033 59.034 50.2067 59.2606 49.78C59.4873 49.3533 59.804 49.0267 60.2106 48.8C60.6173 48.5733 61.0806 48.46 61.6006 48.46C62.1206 48.46 62.574 48.5733 62.9606 48.8C63.354 49.0267 63.654 49.3333 63.8606 49.72C64.074 50.1 64.1806 50.5233 64.1806 50.99ZM63.4706 50.97C63.4773 50.5633 63.394 50.2167 63.2206 49.93C63.054 49.6433 62.824 49.4267 62.5306 49.28C62.2373 49.1333 61.9173 49.06 61.5706 49.06C61.0506 49.06 60.6073 49.2267 60.2406 49.56C59.874 49.8933 59.6706 50.3633 59.6306 50.97H63.4706ZM66.2363 46.6V54H65.5363V46.6H66.2363ZM69.7765 54.08C69.1498 54.08 68.6365 53.9367 68.2365 53.65C67.8432 53.3567 67.6232 52.96 67.5765 52.46H68.2965C68.3298 52.7667 68.4732 53.0167 68.7265 53.21C68.9865 53.3967 69.3332 53.49 69.7665 53.49C70.1465 53.49 70.4432 53.4 70.6565 53.22C70.8765 53.04 70.9865 52.8167 70.9865 52.55C70.9865 52.3633 70.9265 52.21 70.8065 52.09C70.6865 51.97 70.5332 51.8767 70.3465 51.81C70.1665 51.7367 69.9198 51.66 69.6065 51.58C69.1998 51.4733 68.8698 51.3667 68.6165 51.26C68.3632 51.1533 68.1465 50.9967 67.9665 50.79C67.7932 50.5767 67.7065 50.2933 67.7065 49.94C67.7065 49.6733 67.7865 49.4267 67.9465 49.2C68.1065 48.9733 68.3332 48.7933 68.6265 48.66C68.9198 48.5267 69.2532 48.46 69.6265 48.46C70.2132 48.46 70.6865 48.61 71.0465 48.91C71.4065 49.2033 71.5998 49.61 71.6265 50.13H70.9265C70.9065 49.81 70.7798 49.5533 70.5465 49.36C70.3198 49.16 70.0065 49.06 69.6065 49.06C69.2532 49.06 68.9665 49.1433 68.7465 49.31C68.5265 49.4767 68.4165 49.6833 68.4165 49.93C68.4165 50.1433 68.4798 50.32 68.6065 50.46C68.7398 50.5933 68.9032 50.7 69.0965 50.78C69.2898 50.8533 69.5498 50.9367 69.8765 51.03C70.2698 51.1367 70.5832 51.24 70.8165 51.34C71.0498 51.44 71.2498 51.5867 71.4165 51.78C71.5832 51.9733 71.6698 52.23 71.6765 52.55C71.6765 52.8433 71.5965 53.1067 71.4365 53.34C71.2765 53.5667 71.0532 53.7467 70.7665 53.88C70.4798 54.0133 70.1498 54.08 69.7765 54.08ZM73.4191 47.51C73.2791 47.51 73.1591 47.46 73.0591 47.36C72.9591 47.26 72.9091 47.1367 72.9091 46.99C72.9091 46.8433 72.9591 46.7233 73.0591 46.63C73.1591 46.53 73.2791 46.48 73.4191 46.48C73.5591 46.48 73.6791 46.53 73.7791 46.63C73.8791 46.7233 73.9291 46.8433 73.9291 46.99C73.9291 47.1367 73.8791 47.26 73.7791 47.36C73.6791 47.46 73.5591 47.51 73.4191 47.51ZM73.7691 48.54V54H73.0691V48.54H73.7691ZM80.1593 48.54V54H79.4593V53.04C79.2993 53.38 79.0526 53.64 78.7193 53.82C78.386 54 78.0126 54.09 77.5993 54.09C76.946 54.09 76.4126 53.89 75.9993 53.49C75.586 53.0833 75.3793 52.4967 75.3793 51.73V48.54H76.0693V51.65C76.0693 52.2433 76.216 52.6967 76.5093 53.01C76.8093 53.3233 77.216 53.48 77.7293 53.48C78.256 53.48 78.676 53.3133 78.9893 52.98C79.3026 52.6467 79.4593 52.1567 79.4593 51.51V48.54H80.1593ZM83.7124 54.08C83.0858 54.08 82.5724 53.9367 82.1724 53.65C81.7791 53.3567 81.5591 52.96 81.5124 52.46H82.2324C82.2658 52.7667 82.4091 53.0167 82.6624 53.21C82.9224 53.3967 83.2691 53.49 83.7024 53.49C84.0824 53.49 84.3791 53.4 84.5924 53.22C84.8124 53.04 84.9224 52.8167 84.9224 52.55C84.9224 52.3633 84.8624 52.21 84.7424 52.09C84.6224 51.97 84.4691 51.8767 84.2824 51.81C84.1024 51.7367 83.8558 51.66 83.5424 51.58C83.1358 51.4733 82.8058 51.3667 82.5524 51.26C82.2991 51.1533 82.0824 50.9967 81.9024 50.79C81.7291 50.5767 81.6424 50.2933 81.6424 49.94C81.6424 49.6733 81.7224 49.4267 81.8824 49.2C82.0424 48.9733 82.2691 48.7933 82.5624 48.66C82.8558 48.5267 83.1891 48.46 83.5624 48.46C84.1491 48.46 84.6224 48.61 84.9824 48.91C85.3424 49.2033 85.5358 49.61 85.5624 50.13H84.8624C84.8424 49.81 84.7158 49.5533 84.4824 49.36C84.2558 49.16 83.9424 49.06 83.5424 49.06C83.1891 49.06 82.9024 49.1433 82.6824 49.31C82.4624 49.4767 82.3524 49.6833 82.3524 49.93C82.3524 50.1433 82.4158 50.32 82.5424 50.46C82.6758 50.5933 82.8391 50.7 83.0324 50.78C83.2258 50.8533 83.4858 50.9367 83.8124 51.03C84.2058 51.1367 84.5191 51.24 84.7524 51.34C84.9858 51.44 85.1858 51.5867 85.3524 51.78C85.5191 51.9733 85.6058 52.23 85.6124 52.55C85.6124 52.8433 85.5324 53.1067 85.3724 53.34C85.2124 53.5667 84.9891 53.7467 84.7024 53.88C84.4158 54.0133 84.0858 54.08 83.7124 54.08ZM90.6842 55H89.9842V46.1H90.6842V55ZM99.3849 50.28C98.9716 50.1467 98.6549 49.9367 98.4349 49.65C98.2216 49.3633 98.1149 49.0167 98.1149 48.61C98.1149 48.25 98.2049 47.93 98.3849 47.65C98.5716 47.3633 98.8416 47.14 99.1949 46.98C99.5483 46.8133 99.9716 46.73 100.465 46.73C100.958 46.73 101.382 46.8133 101.735 46.98C102.088 47.14 102.355 47.3633 102.535 47.65C102.722 47.93 102.815 48.25 102.815 48.61C102.815 49.01 102.705 49.3567 102.485 49.65C102.272 49.9433 101.958 50.1533 101.545 50.28C101.998 50.3933 102.355 50.61 102.615 50.93C102.875 51.25 103.005 51.64 103.005 52.1C103.005 52.5267 102.898 52.9 102.685 53.22C102.478 53.5333 102.182 53.7767 101.795 53.95C101.415 54.1233 100.972 54.21 100.465 54.21C99.9583 54.21 99.5116 54.1233 99.1249 53.95C98.7449 53.7767 98.4483 53.5333 98.2349 53.22C98.0283 52.9 97.9249 52.5267 97.9249 52.1C97.9249 51.64 98.0549 51.25 98.3149 50.93C98.5749 50.61 98.9316 50.3933 99.3849 50.28ZM102.135 48.69C102.135 48.25 101.985 47.91 101.685 47.67C101.385 47.43 100.978 47.31 100.465 47.31C99.9516 47.31 99.5449 47.43 99.2449 47.67C98.9449 47.9033 98.7949 48.2433 98.7949 48.69C98.7949 49.1033 98.9483 49.4333 99.2549 49.68C99.5616 49.9267 99.9649 50.05 100.465 50.05C100.965 50.05 101.368 49.9267 101.675 49.68C101.982 49.4333 102.135 49.1033 102.135 48.69ZM100.465 50.59C99.9183 50.59 99.4716 50.7133 99.1249 50.96C98.7783 51.2067 98.6049 51.58 98.6049 52.08C98.6049 52.56 98.7716 52.9367 99.1049 53.21C99.4383 53.4833 99.8916 53.62 100.465 53.62C101.032 53.62 101.482 53.4833 101.815 53.21C102.148 52.93 102.315 52.5533 102.315 52.08C102.315 51.5867 102.142 51.2167 101.795 50.97C101.455 50.7167 101.012 50.59 100.465 50.59ZM107.06 48.44C107.473 48.44 107.843 48.5267 108.17 48.7C108.503 48.8733 108.763 49.14 108.95 49.5C109.143 49.8533 109.24 50.2867 109.24 50.8V54H108.55V50.88C108.55 50.2867 108.4 49.8333 108.1 49.52C107.807 49.2067 107.403 49.05 106.89 49.05C106.363 49.05 105.943 49.2167 105.63 49.55C105.317 49.8833 105.16 50.3733 105.16 51.02V54H104.46V46.6H105.16V49.47C105.333 49.1433 105.587 48.89 105.92 48.71C106.26 48.53 106.64 48.44 107.06 48.44Z" fill="black" fill-opacity="0.85"/>
<path d="M41.3217 87.46V86.83H43.0217V94H42.3117V87.46H41.3217ZM48.9466 87.38L46.1566 94H45.4466L48.2666 87.44H44.2666V86.84H48.9466V87.38ZM52.7128 91.27C52.7128 90.7033 52.8261 90.21 53.0528 89.79C53.2795 89.3633 53.5928 89.0367 53.9928 88.81C54.3928 88.5767 54.8495 88.46 55.3628 88.46C56.0361 88.46 56.5895 88.6267 57.0228 88.96C57.4628 89.2933 57.7461 89.7467 57.8728 90.32H57.1228C57.0295 89.9267 56.8261 89.62 56.5128 89.4C56.2061 89.1733 55.8228 89.06 55.3628 89.06C54.9961 89.06 54.6661 89.1433 54.3728 89.31C54.0795 89.4767 53.8461 89.7267 53.6728 90.06C53.5061 90.3867 53.4228 90.79 53.4228 91.27C53.4228 91.75 53.5061 92.1567 53.6728 92.49C53.8461 92.8233 54.0795 93.0733 54.3728 93.24C54.6661 93.4067 54.9961 93.49 55.3628 93.49C55.8228 93.49 56.2061 93.38 56.5128 93.16C56.8261 92.9333 57.0295 92.62 57.1228 92.22H57.8728C57.7461 92.78 57.4628 93.23 57.0228 93.57C56.5828 93.91 56.0295 94.08 55.3628 94.08C54.8495 94.08 54.3928 93.9667 53.9928 93.74C53.5928 93.5067 53.2795 93.18 53.0528 92.76C52.8261 92.3333 52.7128 91.8367 52.7128 91.27ZM64.1806 90.99C64.1806 91.23 64.174 91.4133 64.1606 91.54H59.6306C59.6506 91.9533 59.7506 92.3067 59.9306 92.6C60.1106 92.8933 60.3473 93.1167 60.6406 93.27C60.934 93.4167 61.254 93.49 61.6006 93.49C62.054 93.49 62.434 93.38 62.7406 93.16C63.054 92.94 63.2606 92.6433 63.3606 92.27H64.1006C63.9673 92.8033 63.6806 93.24 63.2406 93.58C62.8073 93.9133 62.2606 94.08 61.6006 94.08C61.0873 94.08 60.6273 93.9667 60.2206 93.74C59.814 93.5067 59.494 93.18 59.2606 92.76C59.034 92.3333 58.9206 91.8367 58.9206 91.27C58.9206 90.7033 59.034 90.2067 59.2606 89.78C59.4873 89.3533 59.804 89.0267 60.2106 88.8C60.6173 88.5733 61.0806 88.46 61.6006 88.46C62.1206 88.46 62.574 88.5733 62.9606 88.8C63.354 89.0267 63.654 89.3333 63.8606 89.72C64.074 90.1 64.1806 90.5233 64.1806 90.99ZM63.4706 90.97C63.4773 90.5633 63.394 90.2167 63.2206 89.93C63.054 89.6433 62.824 89.4267 62.5306 89.28C62.2373 89.1333 61.9173 89.06 61.5706 89.06C61.0506 89.06 60.6073 89.2267 60.2406 89.56C59.874 89.8933 59.6706 90.3633 59.6306 90.97H63.4706ZM66.2363 86.6V94H65.5363V86.6H66.2363ZM69.7765 94.08C69.1498 94.08 68.6365 93.9367 68.2365 93.65C67.8432 93.3567 67.6232 92.96 67.5765 92.46H68.2965C68.3298 92.7667 68.4732 93.0167 68.7265 93.21C68.9865 93.3967 69.3332 93.49 69.7665 93.49C70.1465 93.49 70.4432 93.4 70.6565 93.22C70.8765 93.04 70.9865 92.8167 70.9865 92.55C70.9865 92.3633 70.9265 92.21 70.8065 92.09C70.6865 91.97 70.5332 91.8767 70.3465 91.81C70.1665 91.7367 69.9198 91.66 69.6065 91.58C69.1998 91.4733 68.8698 91.3667 68.6165 91.26C68.3632 91.1533 68.1465 90.9967 67.9665 90.79C67.7932 90.5767 67.7065 90.2933 67.7065 89.94C67.7065 89.6733 67.7865 89.4267 67.9465 89.2C68.1065 88.9733 68.3332 88.7933 68.6265 88.66C68.9198 88.5267 69.2532 88.46 69.6265 88.46C70.2132 88.46 70.6865 88.61 71.0465 88.91C71.4065 89.2033 71.5998 89.61 71.6265 90.13H70.9265C70.9065 89.81 70.7798 89.5533 70.5465 89.36C70.3198 89.16 70.0065 89.06 69.6065 89.06C69.2532 89.06 68.9665 89.1433 68.7465 89.31C68.5265 89.4767 68.4165 89.6833 68.4165 89.93C68.4165 90.1433 68.4798 90.32 68.6065 90.46C68.7398 90.5933 68.9032 90.7 69.0965 90.78C69.2898 90.8533 69.5498 90.9367 69.8765 91.03C70.2698 91.1367 70.5832 91.24 70.8165 91.34C71.0498 91.44 71.2498 91.5867 71.4165 91.78C71.5832 91.9733 71.6698 92.23 71.6765 92.55C71.6765 92.8433 71.5965 93.1067 71.4365 93.34C71.2765 93.5667 71.0532 93.7467 70.7665 93.88C70.4798 94.0133 70.1498 94.08 69.7765 94.08ZM73.4191 87.51C73.2791 87.51 73.1591 87.46 73.0591 87.36C72.9591 87.26 72.9091 87.1367 72.9091 86.99C72.9091 86.8433 72.9591 86.7233 73.0591 86.63C73.1591 86.53 73.2791 86.48 73.4191 86.48C73.5591 86.48 73.6791 86.53 73.7791 86.63C73.8791 86.7233 73.9291 86.8433 73.9291 86.99C73.9291 87.1367 73.8791 87.26 73.7791 87.36C73.6791 87.46 73.5591 87.51 73.4191 87.51ZM73.7691 88.54V94H73.0691V88.54H73.7691ZM80.1593 88.54V94H79.4593V93.04C79.2993 93.38 79.0526 93.64 78.7193 93.82C78.386 94 78.0126 94.09 77.5993 94.09C76.946 94.09 76.4126 93.89 75.9993 93.49C75.586 93.0833 75.3793 92.4967 75.3793 91.73V88.54H76.0693V91.65C76.0693 92.2433 76.216 92.6967 76.5093 93.01C76.8093 93.3233 77.216 93.48 77.7293 93.48C78.256 93.48 78.676 93.3133 78.9893 92.98C79.3026 92.6467 79.4593 92.1567 79.4593 91.51V88.54H80.1593ZM83.7124 94.08C83.0858 94.08 82.5724 93.9367 82.1724 93.65C81.7791 93.3567 81.5591 92.96 81.5124 92.46H82.2324C82.2658 92.7667 82.4091 93.0167 82.6624 93.21C82.9224 93.3967 83.2691 93.49 83.7024 93.49C84.0824 93.49 84.3791 93.4 84.5924 93.22C84.8124 93.04 84.9224 92.8167 84.9224 92.55C84.9224 92.3633 84.8624 92.21 84.7424 92.09C84.6224 91.97 84.4691 91.8767 84.2824 91.81C84.1024 91.7367 83.8558 91.66 83.5424 91.58C83.1358 91.4733 82.8058 91.3667 82.5524 91.26C82.2991 91.1533 82.0824 90.9967 81.9024 90.79C81.7291 90.5767 81.6424 90.2933 81.6424 89.94C81.6424 89.6733 81.7224 89.4267 81.8824 89.2C82.0424 88.9733 82.2691 88.7933 82.5624 88.66C82.8558 88.5267 83.1891 88.46 83.5624 88.46C84.1491 88.46 84.6224 88.61 84.9824 88.91C85.3424 89.2033 85.5358 89.61 85.5624 90.13H84.8624C84.8424 89.81 84.7158 89.5533 84.4824 89.36C84.2558 89.16 83.9424 89.06 83.5424 89.06C83.1891 89.06 82.9024 89.1433 82.6824 89.31C82.4624 89.4767 82.3524 89.6833 82.3524 89.93C82.3524 90.1433 82.4158 90.32 82.5424 90.46C82.6758 90.5933 82.8391 90.7 83.0324 90.78C83.2258 90.8533 83.4858 90.9367 83.8124 91.03C84.2058 91.1367 84.5191 91.24 84.7524 91.34C84.9858 91.44 85.1858 91.5867 85.3524 91.78C85.5191 91.9733 85.6058 92.23 85.6124 92.55C85.6124 92.8433 85.5324 93.1067 85.3724 93.34C85.2124 93.5667 84.9891 93.7467 84.7024 93.88C84.4158 94.0133 84.0858 94.08 83.7124 94.08ZM90.6842 95H89.9842V86.1H90.6842V95ZM99.3849 90.28C98.9716 90.1467 98.6549 89.9367 98.4349 89.65C98.2216 89.3633 98.1149 89.0167 98.1149 88.61C98.1149 88.25 98.2049 87.93 98.3849 87.65C98.5716 87.3633 98.8416 87.14 99.1949 86.98C99.5483 86.8133 99.9716 86.73 100.465 86.73C100.958 86.73 101.382 86.8133 101.735 86.98C102.088 87.14 102.355 87.3633 102.535 87.65C102.722 87.93 102.815 88.25 102.815 88.61C102.815 89.01 102.705 89.3567 102.485 89.65C102.272 89.9433 101.958 90.1533 101.545 90.28C101.998 90.3933 102.355 90.61 102.615 90.93C102.875 91.25 103.005 91.64 103.005 92.1C103.005 92.5267 102.898 92.9 102.685 93.22C102.478 93.5333 102.182 93.7767 101.795 93.95C101.415 94.1233 100.972 94.21 100.465 94.21C99.9583 94.21 99.5116 94.1233 99.1249 93.95C98.7449 93.7767 98.4483 93.5333 98.2349 93.22C98.0283 92.9 97.9249 92.5267 97.9249 92.1C97.9249 91.64 98.0549 91.25 98.3149 90.93C98.5749 90.61 98.9316 90.3933 99.3849 90.28ZM102.135 88.69C102.135 88.25 101.985 87.91 101.685 87.67C101.385 87.43 100.978 87.31 100.465 87.31C99.9516 87.31 99.5449 87.43 99.2449 87.67C98.9449 87.9033 98.7949 88.2433 98.7949 88.69C98.7949 89.1033 98.9483 89.4333 99.2549 89.68C99.5616 89.9267 99.9649 90.05 100.465 90.05C100.965 90.05 101.368 89.9267 101.675 89.68C101.982 89.4333 102.135 89.1033 102.135 88.69ZM100.465 90.59C99.9183 90.59 99.4716 90.7133 99.1249 90.96C98.7783 91.2067 98.6049 91.58 98.6049 92.08C98.6049 92.56 98.7716 92.9367 99.1049 93.21C99.4383 93.4833 99.8916 93.62 100.465 93.62C101.032 93.62 101.482 93.4833 101.815 93.21C102.148 92.93 102.315 92.5533 102.315 92.08C102.315 91.5867 102.142 91.2167 101.795 90.97C101.455 90.7167 101.012 90.59 100.465 90.59ZM107.06 88.44C107.473 88.44 107.843 88.5267 108.17 88.7C108.503 88.8733 108.763 89.14 108.95 89.5C109.143 89.8533 109.24 90.2867 109.24 90.8V94H108.55V90.88C108.55 90.2867 108.4 89.8333 108.1 89.52C107.807 89.2067 107.403 89.05 106.89 89.05C106.363 89.05 105.943 89.2167 105.63 89.55C105.317 89.8833 105.16 90.3733 105.16 91.02V94H104.46V86.6H105.16V89.47C105.333 89.1433 105.587 88.89 105.92 88.71C106.26 88.53 106.64 88.44 107.06 88.44Z" fill="black" fill-opacity="0.85"/>
<g opacity="0.617606">
<path fill-rule="evenodd" clip-rule="evenodd" d="M13 0.549988H15V3.49999H13V0.549988ZM8.76 4.83999L6.96 3.04999L5.55 4.45999L7.34 6.24999L8.76 4.83999ZM6 10.5H3V12.5H6V10.5ZM22.45 4.45999L21.04 3.04999L19.25 4.83999L20.66 6.24999L22.45 4.45999ZM21.03 19.96L19.24 18.16L20.64 16.76L22.44 18.55L21.03 19.96ZM25 10.5H22V12.5H25V10.5ZM8 11.5C8 8.18999 10.69 5.49999 14 5.49999C17.31 5.49999 20 8.18999 20 11.5C20 14.81 17.31 17.5 14 17.5C10.69 17.5 8 14.81 8 11.5ZM15 22.45V19.5H13V22.45H15ZM6.96 19.95L5.55 18.54L7.34 16.74L8.75 18.15L6.96 19.95Z" fill="#EDF219"/>
</g>
<g opacity="0.617606">
<path fill-rule="evenodd" clip-rule="evenodd" d="M13 77.55H15V80.5H13V77.55ZM8.76 81.84L6.96 80.05L5.55 81.46L7.34 83.25L8.76 81.84ZM6 87.5H3V89.5H6V87.5ZM22.45 81.46L21.04 80.05L19.25 81.84L20.66 83.25L22.45 81.46ZM21.03 96.96L19.24 95.16L20.64 93.76L22.44 95.55L21.03 96.96ZM25 87.5H22V89.5H25V87.5ZM8 88.5C8 85.19 10.69 82.5 14 82.5C17.31 82.5 20 85.19 20 88.5C20 91.81 17.31 94.5 14 94.5C10.69 94.5 8 91.81 8 88.5ZM15 99.45V96.5H13V99.45H15ZM6.96 96.95L5.55 95.54L7.34 93.74L8.75 95.15L6.96 96.95Z" fill="#EDF219"/>
</g>
<g opacity="0.617606">
<path d="M21.36 47.04C20.67 43.59 17.64 41 14 41C11.11 41 8.6 42.64 7.35 45.04C4.34 45.36 2 47.91 2 51C2 54.31 4.69 57 8 57H21C23.76 57 26 54.76 26 52C26 49.36 23.95 47.22 21.36 47.04Z" fill="#EDF219"/>
</g>
<path opacity="0.267904" d="M0 70.5H140" stroke="#979797"/>
<path opacity="0.267904" d="M0 30.5H140" stroke="#979797"/>
</svg>
