<svg width="135" height="126" viewBox="0 0 135 126" fill="none" xmlns="http://www.w3.org/2000/svg">
<rect opacity="0.554362" x="13" width="112" height="126" rx="5" fill="#D8D8D8"/>
<rect y="45" width="135" height="38" rx="5" fill="#E77C73"/>
<path d="M3.99023 58V49.4688H6.7793C7.70508 49.4688 8.40039 49.6602 8.86523 50.043C9.33398 50.4258 9.56836 50.9922 9.56836 51.7422C9.56836 52.1406 9.45508 52.4941 9.22852 52.8027C9.00195 53.1074 8.69336 53.3438 8.30273 53.5117C8.76367 53.6406 9.12695 53.8867 9.39258 54.25C9.66211 54.6094 9.79688 55.0391 9.79688 55.5391C9.79688 56.3047 9.54883 56.9062 9.05273 57.3438C8.55664 57.7812 7.85547 58 6.94922 58H3.99023ZM5.11523 54.0098V57.0801H6.97266C7.49609 57.0801 7.9082 56.9453 8.20898 56.6758C8.51367 56.4023 8.66602 56.0273 8.66602 55.5508C8.66602 54.5234 8.10742 54.0098 6.99023 54.0098H5.11523ZM5.11523 53.1074H6.81445C7.30664 53.1074 7.69922 52.9844 7.99219 52.7383C8.28906 52.4922 8.4375 52.1582 8.4375 51.7363C8.4375 51.2676 8.30078 50.9277 8.02734 50.7168C7.75391 50.502 7.33789 50.3945 6.7793 50.3945H5.11523V53.1074ZM14.3613 52.6328C14.1973 52.6055 14.0195 52.5918 13.8281 52.5918C13.1172 52.5918 12.6348 52.8945 12.3809 53.5V58H11.2969V51.6602H12.3516L12.3691 52.3926C12.7246 51.8262 13.2285 51.543 13.8809 51.543C14.0918 51.543 14.252 51.5703 14.3613 51.625V52.6328ZM17.877 58.1172C17.0176 58.1172 16.3184 57.8359 15.7793 57.2734C15.2402 56.707 14.9707 55.9512 14.9707 55.0059V54.8066C14.9707 54.1777 15.0898 53.6172 15.3281 53.125C15.5703 52.6289 15.9062 52.2422 16.3359 51.9648C16.7695 51.6836 17.2383 51.543 17.7422 51.543C18.5664 51.543 19.207 51.8145 19.6641 52.3574C20.1211 52.9004 20.3496 53.6777 20.3496 54.6895V55.1406H16.0547C16.0703 55.7656 16.252 56.2715 16.5996 56.6582C16.9512 57.041 17.3965 57.2324 17.9355 57.2324C18.3184 57.2324 18.6426 57.1543 18.9082 56.998C19.1738 56.8418 19.4062 56.6348 19.6055 56.377L20.2676 56.8926C19.7363 57.709 18.9395 58.1172 17.877 58.1172ZM17.7422 52.4336C17.3047 52.4336 16.9375 52.5938 16.6406 52.9141C16.3438 53.2305 16.1602 53.6758 16.0898 54.25H19.2656V54.168C19.2344 53.6172 19.0859 53.1914 18.8203 52.8906C18.5547 52.5859 18.1953 52.4336 17.7422 52.4336ZM25.5234 58C25.4609 57.875 25.4102 57.6523 25.3711 57.332C24.8672 57.8555 24.2656 58.1172 23.5664 58.1172C22.9414 58.1172 22.4277 57.9414 22.0254 57.5898C21.627 57.2344 21.4277 56.7852 21.4277 56.2422C21.4277 55.582 21.6777 55.0703 22.1777 54.707C22.6816 54.3398 23.3887 54.1562 24.2988 54.1562H25.3535V53.6582C25.3535 53.2793 25.2402 52.9785 25.0137 52.7559C24.7871 52.5293 24.4531 52.416 24.0117 52.416C23.625 52.416 23.3008 52.5137 23.0391 52.709C22.7773 52.9043 22.6465 53.1406 22.6465 53.418H21.5566C21.5566 53.1016 21.668 52.7969 21.8906 52.5039C22.1172 52.207 22.4219 51.9727 22.8047 51.8008C23.1914 51.6289 23.6152 51.543 24.0762 51.543C24.8066 51.543 25.3789 51.7266 25.793 52.0938C26.207 52.457 26.4219 52.959 26.4375 53.5996V56.5176C26.4375 57.0996 26.5117 57.5625 26.6602 57.9062V58H25.5234ZM23.7246 57.1738C24.0645 57.1738 24.3867 57.0859 24.6914 56.9102C24.9961 56.7344 25.2168 56.5059 25.3535 56.2246V54.9238H24.5039C23.1758 54.9238 22.5117 55.3125 22.5117 56.0898C22.5117 56.4297 22.625 56.6953 22.8516 56.8867C23.0781 57.0781 23.3691 57.1738 23.7246 57.1738ZM29.9062 55.0645L29.2266 55.7734V58H28.1426V49H29.2266V54.4434L29.8066 53.7461L31.7812 51.6602H33.0996L30.6328 54.3086L33.3867 58H32.1152L29.9062 55.0645ZM35.6895 50.125V51.6602H36.873V52.498H35.6895V56.4297C35.6895 56.6836 35.7422 56.875 35.8477 57.0039C35.9531 57.1289 36.1328 57.1914 36.3867 57.1914C36.5117 57.1914 36.6836 57.168 36.9023 57.1211V58C36.6172 58.0781 36.3398 58.1172 36.0703 58.1172C35.5859 58.1172 35.2207 57.9707 34.9746 57.6777C34.7285 57.3848 34.6055 56.9688 34.6055 56.4297V52.498H33.4512V51.6602H34.6055V50.125H35.6895ZM39.3223 58H38.2383V51.6602H39.3223V58ZM38.1504 49.9785C38.1504 49.8027 38.2031 49.6543 38.3086 49.5332C38.418 49.4121 38.5781 49.3516 38.7891 49.3516C39 49.3516 39.1602 49.4121 39.2695 49.5332C39.3789 49.6543 39.4336 49.8027 39.4336 49.9785C39.4336 50.1543 39.3789 50.3008 39.2695 50.418C39.1602 50.5352 39 50.5938 38.7891 50.5938C38.5781 50.5938 38.418 50.5352 38.3086 50.418C38.2031 50.3008 38.1504 50.1543 38.1504 49.9785ZM42.082 51.6602L42.1113 52.3633C42.5762 51.8164 43.2031 51.543 43.9922 51.543C44.8789 51.543 45.4824 51.8828 45.8027 52.5625C46.0137 52.2578 46.2871 52.0117 46.623 51.8242C46.9629 51.6367 47.3633 51.543 47.8242 51.543C49.2148 51.543 49.9219 52.2793 49.9453 53.752V58H48.8613V53.8164C48.8613 53.3633 48.7578 53.0254 48.5508 52.8027C48.3438 52.5762 47.9961 52.4629 47.5078 52.4629C47.1055 52.4629 46.7715 52.584 46.5059 52.8262C46.2402 53.0645 46.0859 53.3867 46.043 53.793V58H44.9531V53.8457C44.9531 52.9238 44.502 52.4629 43.5996 52.4629C42.8887 52.4629 42.4023 52.7656 42.1406 53.3711V58H41.0566V51.6602H42.082ZM54.2168 58.1172C53.3574 58.1172 52.6582 57.8359 52.1191 57.2734C51.5801 56.707 51.3105 55.9512 51.3105 55.0059V54.8066C51.3105 54.1777 51.4297 53.6172 51.668 53.125C51.9102 52.6289 52.2461 52.2422 52.6758 51.9648C53.1094 51.6836 53.5781 51.543 54.082 51.543C54.9062 51.543 55.5469 51.8145 56.0039 52.3574C56.4609 52.9004 56.6895 53.6777 56.6895 54.6895V55.1406H52.3945C52.4102 55.7656 52.5918 56.2715 52.9395 56.6582C53.291 57.041 53.7363 57.2324 54.2754 57.2324C54.6582 57.2324 54.9824 57.1543 55.248 56.998C55.5137 56.8418 55.7461 56.6348 55.9453 56.377L56.6074 56.8926C56.0762 57.709 55.2793 58.1172 54.2168 58.1172ZM54.082 52.4336C53.6445 52.4336 53.2773 52.5938 52.9805 52.9141C52.6836 53.2305 52.5 53.6758 52.4297 54.25H55.6055V54.168C55.5742 53.6172 55.4258 53.1914 55.1602 52.8906C54.8945 52.5859 54.5352 52.4336 54.082 52.4336ZM7.86328 68.25C7.63672 68.5195 7.36523 68.7363 7.04883 68.9004C6.73633 69.0645 6.39258 69.1465 6.01758 69.1465C5.52539 69.1465 5.0957 69.0254 4.72852 68.7832C4.36523 68.541 4.08398 68.2012 3.88477 67.7637C3.68555 67.3223 3.58594 66.8359 3.58594 66.3047C3.58594 65.7344 3.69336 65.2207 3.9082 64.7637C4.12695 64.3066 4.43555 63.957 4.83398 63.7148C5.23242 63.4727 5.69727 63.3516 6.22852 63.3516C7.07227 63.3516 7.73633 63.668 8.2207 64.3008C8.70898 64.9297 8.95312 65.7891 8.95312 66.8789V67.1953C8.95312 68.8555 8.625 70.0684 7.96875 70.834C7.3125 71.5957 6.32227 71.9863 4.99805 72.0059H4.78711V71.0918H5.01562C5.91016 71.0762 6.59766 70.8438 7.07812 70.3945C7.55859 69.9414 7.82031 69.2266 7.86328 68.25ZM6.19336 68.25C6.55664 68.25 6.89062 68.1387 7.19531 67.916C7.50391 67.6934 7.72852 67.418 7.86914 67.0898V66.6562C7.86914 65.9453 7.71484 65.3672 7.40625 64.9219C7.09766 64.4766 6.70703 64.2539 6.23438 64.2539C5.75781 64.2539 5.375 64.4375 5.08594 64.8047C4.79688 65.168 4.65234 65.6484 4.65234 66.2461C4.65234 66.8281 4.79102 67.3086 5.06836 67.6875C5.34961 68.0625 5.72461 68.25 6.19336 68.25ZM28.8926 72H27.8027V64.7754L25.6172 65.5781V64.5938L28.7227 63.4277H28.8926V72ZM37.418 68.3613C37.418 69.6309 37.2012 70.5742 36.7676 71.1914C36.334 71.8086 35.6562 72.1172 34.7344 72.1172C33.8242 72.1172 33.1504 71.8164 32.7129 71.2148C32.2754 70.6094 32.0488 69.707 32.0332 68.5078V67.0605C32.0332 65.8066 32.25 64.875 32.6836 64.2656C33.1172 63.6562 33.7969 63.3516 34.7227 63.3516C35.6406 63.3516 36.3164 63.6465 36.75 64.2363C37.1836 64.8223 37.4062 65.7285 37.418 66.9551V68.3613ZM36.334 66.8789C36.334 65.9609 36.2051 65.293 35.9473 64.875C35.6895 64.4531 35.2812 64.2422 34.7227 64.2422C34.168 64.2422 33.7637 64.4512 33.5098 64.8691C33.2559 65.2871 33.125 65.9297 33.1172 66.7969V68.5312C33.1172 69.4531 33.25 70.1348 33.5156 70.5762C33.7852 71.0137 34.1914 71.2324 34.7344 71.2324C35.2695 71.2324 35.666 71.0254 35.9238 70.6113C36.1855 70.1973 36.3223 69.5449 36.334 68.6543V66.8789ZM42.832 72C42.7695 71.875 42.7188 71.6523 42.6797 71.332C42.1758 71.8555 41.5742 72.1172 40.875 72.1172C40.25 72.1172 39.7363 71.9414 39.334 71.5898C38.9355 71.2344 38.7363 70.7852 38.7363 70.2422C38.7363 69.582 38.9863 69.0703 39.4863 68.707C39.9902 68.3398 40.6973 68.1562 41.6074 68.1562H42.6621V67.6582C42.6621 67.2793 42.5488 66.9785 42.3223 66.7559C42.0957 66.5293 41.7617 66.416 41.3203 66.416C40.9336 66.416 40.6094 66.5137 40.3477 66.709C40.0859 66.9043 39.9551 67.1406 39.9551 67.418H38.8652C38.8652 67.1016 38.9766 66.7969 39.1992 66.5039C39.4258 66.207 39.7305 65.9727 40.1133 65.8008C40.5 65.6289 40.9238 65.543 41.3848 65.543C42.1152 65.543 42.6875 65.7266 43.1016 66.0938C43.5156 66.457 43.7305 66.959 43.7461 67.5996V70.5176C43.7461 71.0996 43.8203 71.5625 43.9688 71.9062V72H42.832ZM41.0332 71.1738C41.373 71.1738 41.6953 71.0859 42 70.9102C42.3047 70.7344 42.5254 70.5059 42.6621 70.2246V68.9238H41.8125C40.4844 68.9238 39.8203 69.3125 39.8203 70.0898C39.8203 70.4297 39.9336 70.6953 40.1602 70.8867C40.3867 71.0781 40.6777 71.1738 41.0332 71.1738ZM46.4648 65.6602L46.4941 66.3633C46.959 65.8164 47.5859 65.543 48.375 65.543C49.2617 65.543 49.8652 65.8828 50.1855 66.5625C50.3965 66.2578 50.6699 66.0117 51.0059 65.8242C51.3457 65.6367 51.7461 65.543 52.207 65.543C53.5977 65.543 54.3047 66.2793 54.3281 67.752V72H53.2441V67.8164C53.2441 67.3633 53.1406 67.0254 52.9336 66.8027C52.7266 66.5762 52.3789 66.4629 51.8906 66.4629C51.4883 66.4629 51.1543 66.584 50.8887 66.8262C50.623 67.0645 50.4688 67.3867 50.4258 67.793V72H49.3359V67.8457C49.3359 66.9238 48.8848 66.4629 47.9824 66.4629C47.2715 66.4629 46.7852 66.7656 46.5234 67.3711V72H45.4395V65.6602H46.4648Z" fill="white"/>
<path d="M6 23.5H130" stroke="white" stroke-width="2"/>
<path d="M6 102.5H130" stroke="white" stroke-width="2"/>
<line x1="14" y1="68.5" x2="21" y2="68.5" stroke="white"/>
</svg>
